<svg xmlns="http://www.w3.org/2000/svg" xmlns:xlink="http://www.w3.org/1999/xlink" width="800" height="800" viewBox="0 0 800 800">
  <defs>
    <clipPath id="clip-画板_1">
      <rect width="800" height="800"/>
    </clipPath>
  </defs>
  <g id="画板_1" data-name="画板 1" clip-path="url(#clip-画板_1)">
    <rect width="800" height="800" fill="#fff"/>
    <path id="路径_1" data-name="路径 1" d="M602.313,405.457A254.5,254.5,0,0,1,452.131,637.666h-.15c-12.222,2.774-29.242,5.7-46.262,5.7-29.767-.374-59.158-10.347-59.158-10.347C306.372,620.346,277.88,596.8,257.71,569.06l-14.021,1.2c-14.77,4.5-51.66,44.537,23.844,62.907,8.4,2.024,64.407,15.6,146.359,18.07a254.467,254.467,0,0,1-320.46-245.78c0-140.511,113.893-254.479,254.4-254.479a251.943,251.943,0,0,1,61.033,7.423c2.7.6,5.473,1.35,8.173,2.1,1.574.45,3.224.9,4.873,1.425,5.624,1.725,11.172,3.6,16.645,5.7,1.95.75,3.824,1.5,5.7,2.25l2.7,1.125c2.625,1.124,5.249,2.249,7.8,3.449,2.624,1.2,5.174,2.474,7.723,3.749.075,0,.075,0,.075.074A236.51,236.51,0,0,1,483.4,190.042c2.549,1.65,5.1,3.3,7.648,5.024A254.372,254.372,0,0,1,600.364,373.89l-15.521-9.447c2.55,1.8,4.2,3.449,4.874,5.023,1.649,3,2.174,5.849,1.5,8.323-.525,2.85-2.325,5.4-5.324,7.723a71.792,71.792,0,0,1-22.419,11.322,323.738,323.738,0,0,1-47.761,10.722c-55.035,7.8-113.143,9.522-174.251,4.8A441.169,441.169,0,0,1,297,407.031q-10.008-1.8-20.019-3.824c-2.849-.675-9.372-2.024-17.02-4.2-15.521-4.649-35.54-12.521-35.54-23.543v-.15c0-2.7,1.125-5.324,3.824-8.323l-18.37,14.771c0,11.922,21.669,20.394,38.464,25.418-.75,82.7,30.667,187.6,124.015,212.34,53.61,14.246,101.447-4.5,105.8-6.3-77.978,18.895-125.289-5.848-148.383-33.591-43.862-53.31-45.512-124.24-41.313-163.754a467.964,467.964,0,0,0,47.986,5.774q99.086,7.534,188.422-5.249c16.121-2.174,33.216-6.148,51.661-11.546a77.78,77.78,0,0,0,24.218-12.3,8.027,8.027,0,0,0,1.2-1.05C602.163,396.159,602.313,400.808,602.313,405.457Z" fill="#91c441"/>
    <path id="路径_2" data-name="路径 2" d="M701.736,618.172c-20.47,37.114-211.816,69.205-392.815,55.184-131.738-10.2-257.4-56.534-141.71-88.7,18.145-5.1,42.363-9.822,73.48-13.946.9-.15,1.874-.3,3-.45-14.77,4.5-51.66,44.537,23.844,62.907,8.4,2.024,64.407,15.6,146.359,18.07h.075a823.5,823.5,0,0,0,181.748-14.471c168.628-32.916,9.672-65.756,9.672-65.756S722.13,581.057,701.736,618.172Z" fill="#47220b"/>
    <g id="组_1" data-name="组 1">
      <path id="路径_3" data-name="路径 3" d="M234.917,237.579c-.975.3-1.874.525-2.7.824q2.586-.786,5.4-1.349A12.227,12.227,0,0,0,234.917,237.579Z" fill="#663c32"/>
      <path id="路径_4" data-name="路径 4" d="M450.627,164.2,436.936,176.56a3.8,3.8,0,0,1-3.507.834l-16.194-4.174a2.322,2.322,0,0,1-1.837-2.337,1,1,0,0,1,.167-.668,2.4,2.4,0,0,1,.334-.5,100.139,100.139,0,0,1,7.179-9.183c5.677-6.01,12.522-11.186,19.2-9.015a11.665,11.665,0,0,1,2.838,1.5h.167a23.457,23.457,0,0,1,3.005,2.838,24.4,24.4,0,0,1,2.838,4.008c.167.166.167.333.334.5a.615.615,0,0,1,.167.5C452.129,162.034,451.628,163.2,450.627,164.2Z" fill="#b28252"/>
      <path id="路径_5" data-name="路径 5" d="M493.2,166.779c-.167,7.179-1.669,12.856-6.177,18.867a59.784,59.784,0,0,1-5.176,6.177,66.354,66.354,0,0,1-6.01,5.843,71.807,71.807,0,0,1-6.679,5.343c-2.338,1.67-4.841,3.34-7.346,4.842-.5-.334-1.169-.668-1.837-1.168-1.5-.836-3.339-1.837-5.342-3.172-1-.5-2.171-1.169-3.34-1.838a21.691,21.691,0,0,1-2.5-1.669,37.753,37.753,0,0,1-5.844-4.675l-1-1a34.768,34.768,0,0,1-3.34-3.673,35.2,35.2,0,0,1-3.172-3.839c-.668-1-1.335-1.671-2-2.839,1.837-2,3.841-3.84,5.677-5.676a192.294,192.294,0,0,1,23.876-20.036c4.174-2.838,9.684-4.841,16.7-5.843a7.478,7.478,0,0,1,5.676,1.335l.668.5h.167a.9.9,0,0,1,.5.668v.167c.334.334.334.667-.167,1a3.99,3.99,0,0,1-1.169.5c-2,.667-4.007,1.335-6.011,2.17a36.294,36.294,0,0,0-5.843,2.5,62.213,62.213,0,0,0-5.677,3.173c-1.169.667-2.337,1.5-3.505,2.337a43.186,43.186,0,0,0-7.013,5.343,99.511,99.511,0,0,0-14.359,15.527c-1.5,2-1.169,3.673.668,5.009a4.04,4.04,0,0,0,2.337.5,3,3,0,0,0,2.338-.668c.334-.167.5-.5.668-.668,5.009-5.343,8.181-8.849,9.851-10.351a78.3,78.3,0,0,1,7.179-5.844A50.176,50.176,0,0,1,473,171.12a36.206,36.206,0,0,1,5.677-2.839,22.451,22.451,0,0,1,5.008-2,40.189,40.189,0,0,1,6.345-2C492.2,163.774,493.2,164.609,493.2,166.779Z" fill="#b28252"/>
      <path id="路径_6" data-name="路径 6" d="M536.632,356.42c-11.7-32.166-30.592-65.906-50.311-98.822a26.5,26.5,0,0,1-3.974-9.822c-1.2-12.522-3.149-23.243-9.372-34.565a2.7,2.7,0,0,0-3.824-1.05c-2.7,1.724-5.174.225-7.348-4.124a1.988,1.988,0,0,0-.45-.375,1.636,1.636,0,0,0-.375-.3,7.623,7.623,0,0,1-.974-.674c-1.5-.825-3.374-1.875-5.4-3.149-.975-.525-2.174-1.2-3.3-1.875-.825-.525-1.649-.975-2.549-1.65a41.267,41.267,0,0,1-5.774-4.648l-1.049-1.05a31.161,31.161,0,0,1-3.3-3.674,32.246,32.246,0,0,1-3.224-3.824,21.126,21.126,0,0,1-1.949-2.849v-.15c-2.549-1.65-3.674-3.374-4.049-4.874a2.131,2.131,0,0,0-1.349-1.649c-1.95-1.2-4.5-1.8-7.5-2.474A134.742,134.742,0,0,0,398.9,171.6c-25.943-1.124-53.46,1.5-82.852,7.573a196.694,196.694,0,0,0-52.26,18.67,60.226,60.226,0,0,0-7.2,4.649,64.517,64.517,0,0,1-7.123,5.023c-2.324,1.2-4.874,3.674-7.723,7.2a103.992,103.992,0,0,1-7.123,8.023h.15a14.3,14.3,0,0,0,3.974-.375,14.1,14.1,0,0,0,2.324-.3,36.323,36.323,0,0,0,3.674-.825c.825-.374,1.725-.675,2.55-1.049a2.07,2.07,0,0,0,.674-.075,1.862,1.862,0,0,1,.675-.075,3.038,3.038,0,0,1,1.65.524c1.649.975,3.3,1.95,4.8,3a47.862,47.862,0,0,1,8.548,7.348c1.2,1.349,2.324,2.624,3.524,4.123a13.174,13.174,0,0,1,1.874,3.374,44.619,44.619,0,0,1,1.575,4.5,70.651,70.651,0,0,1,2.4,11.7,245.818,245.818,0,0,1-8.7,102.646c8.847,5.024,19.869,8.547,32.69,10.722a184.834,184.834,0,0,0,34.116,1.649c8.847-.674,20.019-3.973,33.365-9.822,3-1.2,5.024-.525,6.374,2.025v.149a3.665,3.665,0,0,1-1.725,5.024c-17.545,8.848-36.365,12.522-56.909,11.022-7.872-.675-12.9-1.2-15-1.5-1.724-.224-2.7.3-2.849,1.8l-.525,5.024a3.1,3.1,0,0,0,2.7,2.849,706.2,706.2,0,0,0,118.992,7.647l12.746-.3,2.325-.225,11.022-.3a2.075,2.075,0,0,1,1.349,0h.15l15.146-.675,6.673-.525a539.418,539.418,0,0,0,76.029-11.472,2.308,2.308,0,0,0,1.649-2.549A178.935,178.935,0,0,0,536.632,356.42ZM402.87,207.362a6,6,0,0,1-.3,1.8,4.556,4.556,0,0,1-.675,1.2,3.133,3.133,0,0,1-1.125.825,3.485,3.485,0,0,1-1.574.375c-1.95.15-3.824.3-5.774.45-5.473.45-10.947,1.05-16.27,1.725a11.164,11.164,0,0,0-1.35.3c-1.874.3-3.749.6-5.623.975-1.95.3-3.824.675-5.773,1.125-3.824.75-7.723,1.649-11.547,2.549a3.619,3.619,0,0,1-3.449-.6,4.06,4.06,0,0,1-1.275-2.249v-.15c0-.15-.075-.225-.075-.375-.075-.15-.15-.225-.075-.375a2.068,2.068,0,0,1,0-1.35c0-.15,0-.224.075-.3a2.324,2.324,0,0,1,.45-.975,2.283,2.283,0,0,1,.6-.6,4.553,4.553,0,0,1,.75-.525,1.057,1.057,0,0,1,.45-.15.631.631,0,0,1,.449-.15c1.95-.6,3.974-1.125,5.924-1.649,3.974-1.05,7.947-1.875,11.921-2.549,1.95-.3,3.974-.6,5.924-.825,1.949-.375,3.974-.675,6-.975,3.974-.525,8.023-.975,12.071-1.2,2.025-.149,4.049-.3,6.074-.375a.451.451,0,0,1,.3.075,3.5,3.5,0,0,1,1.575.225,3.27,3.27,0,0,1,1.2.75,4.2,4.2,0,0,1,.75,1.125,3.9,3.9,0,0,1,.375,1.724Zm7.122,49.037c-.074-.076-.224-.076-.374-.151a1.585,1.585,0,0,1-.45-.3c-.075,0-.075-.075-.15-.15-.15-.225-.15-.225-.15-.375v-.675h.15a.594.594,0,0,1,.375-.6,2.628,2.628,0,0,1,1.2-.225h.3s.075,0,.225.15c.3.075.9.3,1.875.675.6.225,1.05.45,1.424.6a3.133,3.133,0,0,0,.675.225,3.206,3.206,0,0,1,.375.524l.075.15c.15.151.225.226.3.3a1.109,1.109,0,0,1,0,.975,3.263,3.263,0,0,1-.45.525v.075a1.791,1.791,0,0,1-.675.15h-.075c-.15,0-.225-.075-.375-.15-.374-.15-.9-.375-1.2-.525a5.163,5.163,0,0,1-.6-.225.749.749,0,0,1-.375-.3,4.3,4.3,0,0,0-1.05-.3h-.3A2.37,2.37,0,0,1,409.992,256.4Zm.9,8.622v-.075a.633.633,0,0,1,.525-.15h.15a3.8,3.8,0,0,1,.675.15,8.179,8.179,0,0,1,2.474,1.2l.675.45v.075c1.95,1.574,3.149,3.374,2.624,4.048-.375.225-.824.225-1.649-.075a1.943,1.943,0,0,1-.75-.3,4.255,4.255,0,0,1-.975-.525,1.59,1.59,0,0,1-.45-.3c-.224-.225-.45-.375-.6-.525-.375-.375-.9-.675-1.2-1.05C411.117,266.746,410.517,265.546,410.892,265.021Zm5.624,88.475a10.515,10.515,0,0,1-2.25-1.125,4.656,4.656,0,0,1-.9-.675l-.375-.374c-.15-.225-.3-.375-.3-.525v-.525c.15-.15.225-.3.45-.525l.15-.075a.073.073,0,0,1,.075-.075h.449a5.812,5.812,0,0,1,2.475.15,9.986,9.986,0,0,1,1.425.375,2.673,2.673,0,0,1,.674.3,18.152,18.152,0,0,1,1.725.9,1.6,1.6,0,0,1,.825.75c.524.524.749.974.6,1.424C421.239,354.4,418.915,354.4,416.516,353.5Zm71.98-42.888a6.694,6.694,0,0,1-2.475.075,3.651,3.651,0,0,1-.9-.075c-2.024-.3-3.523-1.125-3.449-2.024,0-.225.15-.375.3-.6.375-.525,1.575-.9,3.074-.9.375,0,.825.075,1.2.075a6.8,6.8,0,0,1,3.974,1.425.412.412,0,0,1,.225.375.675.675,0,0,1,.075.375C490.52,309.934,489.7,310.458,488.5,310.608Z" fill="#e3b079"/>
      <path id="路径_7" data-name="路径 7" d="M375.822,213.922c-7.582,1.332-15.261,2.931-22.989,4.772-2.422.581-4.021-.364-4.772-2.834a.481.481,0,0,1-.024-.17c-.606-2.519.291-4.142,2.737-4.845a159.907,159.907,0,0,1,23.788-5.038,163.174,163.174,0,0,1,24.176-2.423q3.814-.072,4.07,3.779a.418.418,0,0,1,.024.17c.048,2.592-1.187,3.972-3.682,4.166-7.922.582-15.7,1.405-23.328,2.423Z" fill="#663c32"/>
      <path id="路径_8" data-name="路径 8" d="M264.3,357.28c-13.19-9.015-22.706-21.37-28.717-36.731a197.359,197.359,0,0,1-11.02-39.236,109.351,109.351,0,0,1-1.335-25.211,2.494,2.494,0,0,1,2.337-2.17,25.1,25.1,0,0,0,11.354-2.171,23.91,23.91,0,0,0,8.849-6.51c2-2.171,2.17-5.01.667-6.679-1.836-1.837-5.342-2-8.848-1.5a49.891,49.891,0,0,0-5.343,1.336c-.835.334-1.5.5-2.171.834a9.619,9.619,0,0,1-2.17.669.579.579,0,0,1-.333-.167c-.168.167-.335,0-.335-.167-.167-.335-.334-.335-.334-.5a5.664,5.664,0,0,1,.835-2.338l7.013-14.025a16.3,16.3,0,0,0,4.007-.333,13.1,13.1,0,0,0,2.337-.334,37.61,37.61,0,0,0,3.673-.835,23.77,23.77,0,0,0,2.671-.835,2.425,2.425,0,0,1,1.169-.334,3.232,3.232,0,0,1,1.67.5c1.669,1,3.339,2,4.841,3.005a51.834,51.834,0,0,1,8.515,7.346c1.169,1.336,2.338,2.672,3.507,4.174a26.743,26.743,0,0,1,3.506,7.848,75.619,75.619,0,0,1,2.337,11.687A246.309,246.309,0,0,1,264.3,357.28Z" fill="#b28252"/>
      <path id="路径_9" data-name="路径 9" d="M415.825,257.539a1.345,1.345,0,0,1-.46.509,1.01,1.01,0,0,1-1.066.121c-.944-.412-1.7-.727-2.3-.969-.63-.243-1.4-.557-2.35-.921a1,1,0,0,1-.678-.823,1.305,1.305,0,0,1,.024-.679c.121-.629.751-.9,1.89-.775.121.024.823.291,2.083.775,1.235.509,1.914.824,2.035.9C415.9,256.376,416.165,256.982,415.825,257.539Z" fill="#b28252"/>
      <path id="路径_10" data-name="路径 10" d="M418.006,270.692c-.509.63-2.52-.1-4.506-1.647-1.962-1.574-3.149-3.367-2.64-4,.533-.654,2.543.073,4.505,1.648C417.352,268.246,418.539,270.039,418.006,270.692Z" fill="#b28252"/>
      <path id="路径_11" data-name="路径 11" d="M490.557,309.306c-.073.969-2.108,1.647-4.578,1.453-2.447-.194-4.385-1.163-4.312-2.156.1-.993,2.131-1.671,4.578-1.453C488.716,307.319,490.654,308.288,490.557,309.306Z" fill="#b28252"/>
      <path id="路径_12" data-name="路径 12" d="M421.542,353.466c-.339.9-2.592.921-5.062.024-2.471-.92-4.191-2.373-3.852-3.294s2.592-.945,5.063-.024C420.162,351.068,421.881,352.522,421.542,353.466Z" fill="#b28252"/>
      <path id="路径_13" data-name="路径 13" d="M589.717,369.466c-.675-1.574-2.324-3.224-4.874-5.023a57.111,57.111,0,0,0-6.823-3.974,103.4,103.4,0,0,0-23.243-8.847c-3-.825-6.148-1.725-9.447-2.55a4.4,4.4,0,0,1-3.374-2.624l-.975-2.324-.525-1.2-9-21.219-.525-.825c-10.721-22.193-23.243-44.387-36.889-66.956-3.149-5.324-3-9-3.674-13.871A91.77,91.77,0,0,0,479.5,208.037a2.651,2.651,0,0,1,.825-3.374,49.619,49.619,0,0,0,10.722-9.6,40.831,40.831,0,0,0,8.848-16.421c2.624-10.347,1.5-19.194-3.675-26.392-9-12.522-23.393-8.023-36.59-2.174-.149.149-.3,0-.3-.151a31.5,31.5,0,0,0-7.2-9c-14.846-13.2-31.866.6-40.939,14.171-.9,1.275-1.649,2.324-2.324,3.3-1.425,2.1-2.324,3.449-2.624,4.049a2.769,2.769,0,0,1-2.025.824A365.859,365.859,0,0,0,300,174.447a160.519,160.519,0,0,0-46.712,20.019c-27.742,17.92-40.714,43.263-38.539,76.478,1.274,21.369,7.947,43.788,19.869,66.957l9.972,13.87,2.7,2.85c.674.675.45,1.125-.15,1.5-9.748,3.974-15.9,7.648-18.9,10.872-2.7,3-3.824,5.624-3.824,8.323v.15c0,11.022,20.019,18.894,35.54,23.543,7.648,2.175,14.171,3.524,17.02,4.2q10.01,2.025,20.019,3.824a441.169,441.169,0,0,0,44.463,5.323c61.108,4.724,119.216,3,174.251-4.8a323.738,323.738,0,0,0,47.761-10.722,71.792,71.792,0,0,0,22.419-11.322c3-2.324,4.8-4.873,5.324-7.723C591.891,375.315,591.366,372.466,589.717,369.466Zm-166.6-216.389c5.623-6,12.522-11.171,19.194-9a7.244,7.244,0,0,1,2.775,1.5h.225a11.869,11.869,0,0,1,3,2.849,20.6,20.6,0,0,1,3,3.824,1.37,1.37,0,0,1,.15.675.631.631,0,0,1,.15.524c.525,1.125,0,2.325-.975,3.3l-.974.9-11.1,9.972-1.649,1.5a3.82,3.82,0,0,1-3.449.825l-14.921-3.824-1.274-.375a2.264,2.264,0,0,1-1.875-2.324,1.232,1.232,0,0,1,.15-.675c0-.15.225-.3.225-.45.375-.6.825-1.125,1.275-1.8A75.6,75.6,0,0,1,423.114,153.077ZM540.981,380.338a539.418,539.418,0,0,1-76.029,11.472l-6.673.525-15.146.675h-1.5l-11.022.3-2.325.225-12.746.3a706.2,706.2,0,0,1-118.992-7.647,3.1,3.1,0,0,1-2.7-2.849l.525-5.024c.15-1.5,1.125-2.024,2.849-1.8,2.1.3,7.124.825,15,1.5,20.544,1.5,39.364-2.174,56.909-11.022a3.665,3.665,0,0,0,1.725-5.024v-.149c-1.35-2.55-3.374-3.224-6.374-2.025-13.346,5.849-24.518,9.148-33.365,9.822A184.834,184.834,0,0,1,297,367.967c-12.821-2.175-23.843-5.7-32.69-10.722-13.2-9-22.719-21.369-28.717-36.665a200.361,200.361,0,0,1-11.022-39.288,107.972,107.972,0,0,1-1.35-25.194,2.479,2.479,0,0,1,2.325-2.174,25.6,25.6,0,0,0,11.4-2.174,36.836,36.836,0,0,0,3.373-1.8c.15-.075.225-.225.376-.3a22.624,22.624,0,0,0,3.073-2.4,25.956,25.956,0,0,0,2.025-2.024c1.95-2.175,2.174-4.949.675-6.673-1.875-1.8-5.4-1.95-8.848-1.5q-2.811.563-5.4,1.349c-.825.3-1.5.525-2.175.825a7.488,7.488,0,0,1-2.174.675.524.524,0,0,1-.3-.15.276.276,0,0,1-.225.075c-.075,0-.075,0-.075-.075v-.15c-.225-.375-.375-.375-.375-.525a6.217,6.217,0,0,1,.825-2.324l6.9-14.021a103.992,103.992,0,0,0,7.123-8.023c2.849-3.524,5.4-6,7.723-7.2a64.517,64.517,0,0,0,7.123-5.023,60.226,60.226,0,0,1,7.2-4.649,196.694,196.694,0,0,1,52.26-18.67c29.392-6.073,56.909-8.7,82.852-7.573a134.742,134.742,0,0,1,21.669,3.225c3,.674,5.548,1.274,7.5,2.474a2.131,2.131,0,0,1,1.349,1.649c.375,1.5,1.5,3.224,4.049,4.874a33.008,33.008,0,0,1,2.849-2.774c.9-.975,1.8-1.875,2.774-2.775,2.625-2.549,5.249-5.023,7.873-7.272A180.531,180.531,0,0,1,463,158.251q6.185-4.274,16.645-5.848a7.532,7.532,0,0,1,5.7,1.349l.674.525h.15a.763.763,0,0,1,.525.675v.15c.3.3.3.675-.15.975a4.667,4.667,0,0,1-1.2.525c-2.025.674-3.974,1.349-6,2.174a37.086,37.086,0,0,0-5.848,2.474c-2.025,1.05-3.824,2.024-5.7,3.224a30.932,30.932,0,0,0-3.449,2.325,2.863,2.863,0,0,0-.975.675l-.9.674c-1.8,1.275-3.524,2.624-5.174,3.974-.825.75-1.724,1.5-2.549,2.325a101.39,101.39,0,0,0-11.772,13.2c-1.574,2.024-1.2,3.674.6,5.024a4.547,4.547,0,0,0,2.4.524,3.276,3.276,0,0,0,2.324-.675c.3-.224.45-.525.675-.674,4.948-5.4,8.172-8.848,9.822-10.347v-.225c1.2-1.05,2.4-2.025,3.674-3.074,1.125-.9,2.324-1.725,3.524-2.55.825-.674,1.8-1.349,2.624-2.024a3.5,3.5,0,0,1,.75-.375,3.1,3.1,0,0,1,.825-.525c.45-.3.974-.6,1.5-.9a3.5,3.5,0,0,1,1.275-.674,33.69,33.69,0,0,1,5.7-2.85,27.119,27.119,0,0,1,5.024-2.024,47.34,47.34,0,0,1,6.3-2.025c2.174-.45,3.224.375,3.224,2.55-.15,7.123-1.725,12.821-6.223,18.819a25.353,25.353,0,0,1-2.475,3.149c-.374.45-.749.825-1.124,1.275-.45.6-1.05,1.2-1.575,1.8a74.343,74.343,0,0,1-6,5.848,80.068,80.068,0,0,1-6.673,5.324,70.718,70.718,0,0,1-7.348,5.023c2.174,4.349,4.649,5.848,7.348,4.124a2.7,2.7,0,0,1,3.824,1.05c6.223,11.322,8.173,22.043,9.372,34.565a26.5,26.5,0,0,0,3.974,9.822c19.719,32.916,38.614,66.656,50.311,98.822a178.935,178.935,0,0,1,6,21.369A2.308,2.308,0,0,1,540.981,380.338Z" fill="#47220b"/>
    </g>
    <path id="路径_14" data-name="路径 14" d="M469.826,633.017s-6.973,2.25-17.695,4.649h-.15c-12.222,2.774-29.242,5.7-46.262,5.7-29.767-.374-59.158-10.347-59.158-10.347C306.372,620.346,277.88,596.8,257.71,569.06c-54.659-75.2-48.211-181.373-47.836-187.3,0,11.922,21.669,20.394,38.464,25.418-.75,82.7,30.667,187.6,124.015,212.34,53.61,14.246,101.447-4.5,105.8-6.3-77.978,18.895-125.289-5.848-148.383-33.591-43.862-53.31-45.512-124.24-41.313-163.754a467.964,467.964,0,0,0,47.986,5.774q99.086,7.534,188.422-5.249c16.121-2.174,33.216-6.148,51.661-11.546a77.78,77.78,0,0,0,24.218-12.3,8.027,8.027,0,0,0,1.2-1.05,11.938,11.938,0,0,0,4.573-7.2C607.787,408.681,611.536,588.1,469.826,633.017Z" fill="#47220b"/>
    <path id="路径_15" data-name="路径 15" d="M621.73,393.258c-.329-2.845,40.387-16.2,67.531,16.418,24.737,29.771,1.314,77.054-22,102.666-42.577,46.845-102.009,74.427-102.009,74.427s83.511-57.791,96.317-106.934c13.9-53.632-40.5-34.04-40.5-34.04s4.816-13.353.657-52.537Z" fill="#47220b"/>
  </g>
</svg>
